# xmcd
#
# Track frame offsets:
#	150
#	13481
#	24918
#	39900
#	55372
#	69438
#	84244
#	98278
#	112379
#	125813
#	139005
#	154358
#	168657
#	182445
#	195641
#	208034
#	220362
#	233772
#	246456
#	261139
#	273347
#	287016
#	301372
#	315974
#
# Disc length: 4392 seconds
#
# Revision: 0
# Processed by: cddbd v1.5.2PL0 Copyright (c) Steve Scherf et al.
# Submitted via: EZCDAudioConverter 1.3.4.1
#
DISCID=5b112618
DTITLE=tucanes de tijuana - nuestros mejores 2grandes exitos
DYEAR=1900
DGENRE=
TTITLE0=me gusta vivir de noche
TTITLE1=estoy a dieta
TTITLE2=la chona
TTITLE3=me haces mucha falta
TTITLE4=me robaste el corazon
TTITLE5=desde que te amo
TTITLE6=de tin marin
TTITLE7=seis pies boca abajo
TTITLE8=nuestro destino
TTITLE9=la preciosura
TTITLE10=adivina adivinador
TTITLE11=devuelme el corazon
TTITLE12=espejeando
TTITLE13=el tucanazo
TTITLE14=las heladas
TTITLE15=el amor soñado
TTITLE16=amor platonico
TTITLE17=mundo de amor
TTITLE18=secuestro de amor
TTITLE19=eres mi sueño
TTITLE20=mi consuelo
TTITLE21=esa locion me mata
TTITLE22=pense en pegarte un tiro
TTITLE23=no porque se muere un chivo
EXTD=
EXTT0=
EXTT1=
EXTT2=
EXTT3=
EXTT4=
EXTT5=
EXTT6=
EXTT7=
EXTT8=
EXTT9=
EXTT10=
EXTT11=
EXTT12=
EXTT13=
EXTT14=
EXTT15=
EXTT16=
EXTT17=
EXTT18=
EXTT19=
EXTT20=
EXTT21=
EXTT22=
EXTT23=
PLAYORDER=
